<svg xmlns="http://www.w3.org/2000/svg" viewBox="0 0 24 24" width="24px" height="24px">
    <path d="M12.24 10.285V14.4h6.806c-.275 1.765-2.056 5.174-6.806 5.174-4.095 0-7.439-3.389-7.439-7.574s3.345-7.574 7.439-7.574c2.33 0 3.891.989 4.785 1.849l3.254-3.138C18.189 1.186 15.479 0 12.24 0c-6.635 0-12 5.365-12 12s5.365 12 12 12c6.926 0 11.52-4.869 11.52-11.726 0-.788-.085-1.39-.189-1.989H12.24z" fill="#4285F4"/>
    <path d="M22.56 12.274c0-.788-.085-1.39-.189-1.989H12.24V14.4h6.806c-.12 1.05-.8 2.39-1.98 3.52l3.68 2.85c2.15-1.98 3.814-4.91 3.814-8.496z" fill="#4285F4"/>
    <path d="M12.24 24c3.24 0 5.95-1.08 7.96-2.91l-3.68-2.85c-1.09.73-2.47 1.18-4.28 1.18-3.31 0-6.1-2.23-7.1-5.23H1.26v3.3C3.33 21.57 7.47 24 12.24 24z" fill="#34A853"/>
    <path d="M5.14 14.19c-.25-.76-.4-1.57-.4-2.4s.15-1.64.4-2.4V6.09H1.26C.46 7.69 0 9.49 0 12s.46 4.31 1.26 5.91l3.88-3.72z" fill="#FBBC05"/>
    <path d="M12.24 4.77c1.76 0 3.34.61 4.58 1.79l3.43-3.43C18.18 1.19 15.48 0 12.24 0 7.47 0 3.33 2.43 1.26 6.09l3.88 3.72c1-3 3.79-5.04 7.1-5.04z" fill="#EA4335"/>
</svg>
